<svg width="83" height="83" viewBox="0 0 83 83" fill="none" xmlns="http://www.w3.org/2000/svg">
<mask id="mask0_551_1611" style="mask-type:alpha" maskUnits="userSpaceOnUse" x="0" y="0" width="83" height="83">
<rect width="83" height="83" fill="#D9D9D9"/>
</mask>
<g mask="url(#mask0_551_1611)">
<path d="M10.3749 72.6252C8.47284 72.6252 6.84454 71.9479 5.49002 70.5934C4.13551 69.2389 3.45825 67.6106 3.45825 65.7085V24.2085C3.45825 22.3064 4.13551 20.6781 5.49002 19.3236C6.84454 17.9691 8.47284 17.2918 10.3749 17.2918H21.2687L25.5916 12.6231C26.2256 11.9314 26.9893 11.3838 27.8827 10.9804C28.7761 10.5769 29.7128 10.3752 30.6926 10.3752H44.9583C45.9381 10.3752 46.7595 10.7066 47.4223 11.3694C48.0852 12.0323 48.4166 12.8536 48.4166 13.8335C48.4166 14.8134 48.0852 15.6347 47.4223 16.2976C46.7595 16.9604 45.9381 17.2918 44.9583 17.2918H30.6926L24.3812 24.2085H10.3749V65.7085H65.7083V38.0418C65.7083 37.062 66.0397 36.2406 66.7025 35.5778C67.3654 34.9149 68.1867 34.5835 69.1666 34.5835C70.1464 34.5835 70.9678 34.9149 71.6307 35.5778C72.2935 36.2406 72.6249 37.062 72.6249 38.0418V65.7085C72.6249 67.6106 71.9477 69.2389 70.5932 70.5934C69.2386 71.9479 67.6103 72.6252 65.7083 72.6252H10.3749ZM65.7083 17.2918H62.2499C61.2701 17.2918 60.4487 16.9604 59.7859 16.2976C59.123 15.6347 58.7916 14.8134 58.7916 13.8335C58.7916 12.8536 59.123 12.0323 59.7859 11.3694C60.4487 10.7066 61.2701 10.3752 62.2499 10.3752H65.7083V6.91683C65.7083 5.93697 66.0397 5.11561 66.7025 4.45277C67.3654 3.78992 68.1867 3.4585 69.1666 3.4585C70.1464 3.4585 70.9678 3.78992 71.6307 4.45277C72.2935 5.11561 72.6249 5.93697 72.6249 6.91683V10.3752H76.0833C77.0631 10.3752 77.8845 10.7066 78.5473 11.3694C79.2102 12.0323 79.5416 12.8536 79.5416 13.8335C79.5416 14.8134 79.2102 15.6347 78.5473 16.2976C77.8845 16.9604 77.0631 17.2918 76.0833 17.2918H72.6249V20.7502C72.6249 21.73 72.2935 22.5514 71.6307 23.2142C70.9678 23.8771 70.1464 24.2085 69.1666 24.2085C68.1867 24.2085 67.3654 23.8771 66.7025 23.2142C66.0397 22.5514 65.7083 21.73 65.7083 20.7502V17.2918ZM38.0416 60.521C42.3645 60.521 46.039 59.008 49.065 55.9819C52.0911 52.9559 53.6041 49.2814 53.6041 44.9585C53.6041 40.6356 52.0911 36.9611 49.065 33.9351C46.039 30.909 42.3645 29.396 38.0416 29.396C33.7187 29.396 30.0442 30.909 27.0181 33.9351C23.9921 36.9611 22.4791 40.6356 22.4791 44.9585C22.4791 49.2814 23.9921 52.9559 27.0181 55.9819C30.0442 59.008 33.7187 60.521 38.0416 60.521ZM38.0416 53.6043C35.6208 53.6043 33.5746 52.7686 31.903 51.097C30.2315 49.4255 29.3958 47.3793 29.3958 44.9585C29.3958 42.5377 30.2315 40.4915 31.903 38.82C33.5746 37.1484 35.6208 36.3127 38.0416 36.3127C40.4624 36.3127 42.5086 37.1484 44.1801 38.82C45.8517 40.4915 46.6874 42.5377 46.6874 44.9585C46.6874 47.3793 45.8517 49.4255 44.1801 51.097C42.5086 52.7686 40.4624 53.6043 38.0416 53.6043Z" fill="#A1A1AA"/>
</g>
</svg>
